<svg xmlns="http://www.w3.org/2000/svg" width="60" height="59.998" viewBox="0 0 60 59.998">
  <g id="school_management" transform="translate(0.018)">
    <path id="Path_80" data-name="Path 80" d="M29.991,0A29.991,29.991,0,0,0,19.018,57.908l40.694-31.96A30,30,0,0,0,29.991,0Z" fill="#ff7045"/>
    <path id="Path_81" data-name="Path 81" d="M122.287,69.558,93.779,60.8l-3.2,10.229L72.7,67.191l8.846,34.323a30.017,30.017,0,0,0,40.745-31.956Z" transform="translate(-62.577 -43.604)" fill="#de4726"/>
    <g id="graduation-hat" transform="translate(8.904 14.638)">
      <path id="Path_16328" data-name="Path 16328" d="M91,124.758v8.972c0,3.746,6.544,5.781,12.718,5.781s12.718-2.035,12.718-5.781v-8.972a1.159,1.159,0,0,0-1.156-1.156H92.156A1.159,1.159,0,0,0,91,124.758Zm0,0" transform="translate(-83.985 -114.075)" fill="#fff"/>
      <path id="Path_16329" data-name="Path 16329" d="M256,124.758v8.972c0,3.746,6.544,5.781,12.718,5.781V123.6H257.156A1.159,1.159,0,0,0,256,124.758Zm0,0" transform="translate(-248.985 -114.075)" fill="#e9edf5"/>
      <path id="Path_16330" data-name="Path 16330" d="M9.6,8.094a1.158,1.158,0,0,0,.74,1.087l18.576,6.937a1.279,1.279,0,0,0,.832,0L48.326,9.18V7.007L29.75.069a1.285,1.285,0,0,0-.832,0L10.342,7.007A1.159,1.159,0,0,0,9.6,8.094Zm0,0" transform="translate(-9.601 -0.001)" fill="#e9edf5"/>
      <path id="Path_16331" data-name="Path 16331" d="M256,8.094a1.158,1.158,0,0,0,.74,1.087l18.576,6.937a1.3,1.3,0,0,0,.416.07V0a1.312,1.312,0,0,0-.416.069L256.74,7.007A1.159,1.159,0,0,0,256,8.094Zm0,0" transform="translate(-255.999 -0.001)" fill="#fff"/>
      <path id="Path_16332" data-name="Path 16332" d="M0,90.882a.874.874,0,0,0,.882.882h13.29v13.09l-1.711,5.152a.876.876,0,1,0,1.658.564l.053-.159a.907.907,0,0,0,.882.759.874.874,0,0,0,.882-.882V90.882A.873.873,0,0,0,15.054,90H.882A.873.873,0,0,0,0,90.882Zm0,0" transform="translate(24.556 -83.063)" fill="#fdbf00"/>
    </g>
  </g>
</svg>
